<svg width="84" height="91" viewBox="0 0 84 91" fill="none" xmlns="http://www.w3.org/2000/svg">
<path d="M0.541329 -6.19888e-06H44.4813C55.8347 -6.19888e-06 64.3713 2.16666 70.0913 6.5C75.898 10.7467 78.8013 16.4667 78.8013 23.66C78.8013 28.2533 77.718 32.24 75.5513 35.62C73.3847 39 70.4813 41.6867 66.8413 43.68C71.868 45.3267 75.8547 48.0567 78.8013 51.87C81.8347 55.6833 83.3513 60.45 83.3513 66.17C83.3513 74.0567 80.2747 80.1667 74.1213 84.5C68.0547 88.8333 59.0413 91 47.0813 91H0.541329V75.79H45.7813C51.4147 75.79 55.7047 74.88 58.6513 73.06C61.598 71.1533 63.0713 68.1633 63.0713 64.09C63.0713 60.0167 61.598 57.07 58.6513 55.25C55.7047 53.3433 51.4147 52.39 45.7813 52.39H0.541329V37.57H42.1413C47.428 37.57 51.458 36.66 54.2313 34.84C57.0913 32.9333 58.5213 30.1167 58.5213 26.39C58.5213 22.6633 57.0913 19.89 54.2313 18.07C51.458 16.1633 47.428 15.21 42.1413 15.21H0.541329V-6.19888e-06Z" fill="white"/>
</svg>
