<svg width="2406" height="271" viewBox="0 0 2406 271" fill="none" xmlns="http://www.w3.org/2000/svg">
<path d="M0.800001 -1.43051e-05H102.2C128.4 -1.43051e-05 148.1 4.99999 161.3 15C174.7 24.8 181.4 38 181.4 54.6C181.4 65.2 178.9 74.4 173.9 82.2C168.9 90 162.2 96.2 153.8 100.8C165.4 104.6 174.6 110.9 181.4 119.7C188.4 128.5 191.9 139.5 191.9 152.7C191.9 170.9 184.8 185 170.6 195C156.6 205 135.8 210 108.2 210H0.800001V174.9H105.2C118.2 174.9 128.1 172.8 134.9 168.6C141.7 164.2 145.1 157.3 145.1 147.9C145.1 138.5 141.7 131.7 134.9 127.5C128.1 123.1 118.2 120.9 105.2 120.9H0.800001V86.7H96.8C109 86.7 118.3 84.6 124.7 80.4C131.3 76 134.6 69.5 134.6 60.9C134.6 52.3 131.3 45.9 124.7 41.7C118.3 37.3 109 35.1 96.8 35.1H0.800001V-1.43051e-05ZM294.402 212.1C284.202 212.1 274.902 210.7 266.502 207.9C258.102 204.9 250.802 200.5 244.602 194.7C238.602 188.7 233.902 181.2 230.502 172.2C227.102 163.2 225.402 152.5 225.402 140.1V48.9H269.802V133.5C269.802 147.3 272.702 157.5 278.502 164.1C284.502 170.5 292.902 173.7 303.702 173.7C315.102 173.7 324.402 170.1 331.602 162.9C339.002 155.5 342.702 144.2 342.702 129V48.9H387.402V210H344.802V190.8C338.602 197.8 331.102 203.1 322.302 206.7C313.702 210.3 304.402 212.1 294.402 212.1ZM484.773 212.1C471.173 212.1 458.073 210.5 445.473 207.3C432.873 204.1 422.873 199.9 415.473 194.7L430.773 162.6C437.973 167.2 446.573 170.9 456.573 173.7C466.773 176.5 476.873 177.9 486.873 177.9C498.073 177.9 505.973 176.6 510.573 174C515.173 171.2 517.473 167.4 517.473 162.6C517.473 158 515.073 154.8 510.273 153C505.473 151 499.373 149.4 491.973 148.2C484.773 147 476.973 145.7 468.573 144.3C460.173 142.9 452.273 140.6 444.873 137.4C437.673 134.2 431.673 129.6 426.873 123.6C422.073 117.4 419.673 108.9 419.673 98.1C419.673 90.5 421.373 83.6 424.773 77.4C428.173 71 432.973 65.6 439.173 61.2C445.573 56.6 453.273 53.1 462.273 50.7C471.473 48.1 481.773 46.8 493.173 46.8C498.773 46.8 504.373 47.1 509.973 47.7C515.773 48.3 521.373 49.2 526.773 50.4C532.173 51.6 537.273 53.1 542.073 54.9C546.873 56.5 551.173 58.4 554.973 60.6L539.673 93C531.873 88.4 524.073 85.3 516.273 83.7C508.473 81.9 500.873 81 493.473 81C482.673 81 474.773 82.5 469.773 85.5C464.773 88.3 462.273 92 462.273 96.6C462.273 101.4 464.673 104.9 469.473 107.1C474.273 109.1 480.273 110.8 487.473 112.2C494.873 113.4 502.773 114.7 511.173 116.1C519.573 117.3 527.373 119.5 534.573 122.7C541.973 125.9 548.073 130.5 552.873 136.5C557.673 142.5 560.073 150.8 560.073 161.4C560.073 168.8 558.373 175.7 554.973 182.1C551.573 188.3 546.673 193.6 540.273 198C533.873 202.4 525.973 205.9 516.573 208.5C507.373 210.9 496.773 212.1 484.773 212.1ZM665.476 175.5C671.476 175.5 677.076 174.5 682.276 172.5C687.676 170.3 692.276 167.2 696.076 163.2C699.876 159.2 702.876 154.4 705.076 148.8C707.276 143.2 708.376 136.8 708.376 129.6C708.376 122.4 707.276 116 705.076 110.4C702.876 104.6 699.876 99.7 696.076 95.7C692.276 91.7 687.676 88.7 682.276 86.7C677.076 84.5 671.476 83.4 665.476 83.4C659.476 83.4 653.876 84.5 648.676 86.7C643.476 88.7 638.976 91.7 635.176 95.7C631.376 99.7 628.376 104.6 626.176 110.4C623.976 116 622.876 122.4 622.876 129.6C622.876 136.8 623.976 143.2 626.176 148.8C628.376 154.4 631.376 159.2 635.176 163.2C638.976 167.2 643.476 170.3 648.676 172.5C653.876 174.5 659.476 175.5 665.476 175.5ZM752.176 268.2H707.476V192.3C701.476 199.1 694.276 204.1 685.876 207.3C677.676 210.5 668.476 212.1 658.276 212.1C646.876 212.1 636.276 210.2 626.476 206.4C616.676 202.4 608.176 196.9 600.976 189.9C593.776 182.7 588.076 174 583.876 163.8C579.876 153.6 577.876 142.2 577.876 129.6C577.876 117 579.876 105.6 583.876 95.4C588.076 85.2 593.776 76.5 600.976 69.3C608.176 62.1 616.676 56.6 626.476 52.8C636.276 48.8 646.876 46.8 658.276 46.8C680.676 46.8 697.776 53.9 709.576 68.1V48.9H752.176V268.2ZM864.812 212.1C854.612 212.1 845.312 210.7 836.912 207.9C828.512 204.9 821.212 200.5 815.012 194.7C809.012 188.7 804.312 181.2 800.912 172.2C797.512 163.2 795.812 152.5 795.812 140.1V48.9H840.212V133.5C840.212 147.3 843.112 157.5 848.912 164.1C854.912 170.5 863.312 173.7 874.112 173.7C885.512 173.7 894.812 170.1 902.012 162.9C909.412 155.5 913.112 144.2 913.112 129V48.9H957.812V210H915.212V190.8C909.012 197.8 901.512 203.1 892.712 206.7C884.112 210.3 874.812 212.1 864.812 212.1ZM1116.38 115.5C1114.78 104.9 1110.28 96.5 1102.88 90.3C1095.68 83.9 1086.48 80.7 1075.28 80.7C1064.28 80.7 1055.08 83.9 1047.68 90.3C1040.48 96.5 1036.08 104.9 1034.48 115.5H1116.38ZM1080.98 212.1C1067.18 212.1 1054.68 210.1 1043.48 206.1C1032.48 201.9 1022.98 196.2 1014.98 189C1006.98 181.6 1000.78 172.8 996.383 162.6C992.183 152.4 990.083 141.3 990.083 129.3C990.083 117.3 992.183 106.3 996.383 96.3C1000.78 86.1 1006.78 77.4 1014.38 70.2C1021.98 62.8 1030.98 57.1 1041.38 53.1C1051.78 48.9 1063.08 46.8 1075.28 46.8C1087.08 46.8 1098.08 48.7 1108.28 52.5C1118.48 56.3 1127.28 61.8 1134.68 69C1142.08 76.2 1147.88 85 1152.08 95.4C1156.28 105.6 1158.38 117.2 1158.38 130.2C1158.38 131.8 1158.28 133.8 1158.08 136.2C1158.08 138.4 1157.98 140.4 1157.78 142.2H1034.78C1036.98 152.8 1042.28 161.2 1050.68 167.4C1059.08 173.4 1069.68 176.4 1082.48 176.4C1091.08 176.4 1098.68 175.1 1105.28 172.5C1111.88 169.7 1117.98 165.6 1123.58 160.2L1147.28 186.3C1132.28 203.5 1110.18 212.1 1080.98 212.1ZM1235.45 210H1191.05V48.9H1233.35V70.8C1244.75 54.8 1263.45 46.8 1289.45 46.8V88.2C1285.65 87.6 1282.25 87.3 1279.25 87.3C1266.05 87.3 1255.45 91.1 1247.45 98.7C1239.45 106.3 1235.45 117.9 1235.45 133.5V210ZM1392.16 160.8L1438.96 48.9H1481.56L1408.36 220.8C1404.56 230.4 1400.26 238.4 1395.46 244.8C1390.86 251.2 1385.76 256.2 1380.16 259.8C1374.76 263.6 1368.96 266.3 1362.76 267.9C1356.56 269.5 1349.86 270.3 1342.66 270.3C1334.26 270.3 1325.96 269 1317.76 266.4C1309.76 264 1303.16 260.4 1297.96 255.6L1314.76 223.8C1318.36 227.2 1322.46 229.8 1327.06 231.6C1331.86 233.4 1336.66 234.3 1341.46 234.3C1347.86 234.3 1353.06 232.7 1357.06 229.5C1361.26 226.3 1364.96 221 1368.16 213.6L1369.36 210.9L1299.46 48.9H1345.36L1392.16 160.8ZM1589.57 95.1H1734.17V132.6H1635.77V210H1589.57V95.1ZM1589.57 -1.43051e-05H1746.77V37.5H1589.57V-1.43051e-05ZM1819.34 210H1774.94V48.9H1817.24V70.8C1828.64 54.8 1847.34 46.8 1873.34 46.8V88.2C1869.54 87.6 1866.14 87.3 1863.14 87.3C1849.94 87.3 1839.34 91.1 1831.34 98.7C1823.34 106.3 1819.34 117.9 1819.34 133.5V210ZM1976.22 212.1C1963.62 212.1 1951.92 210.1 1941.12 206.1C1930.52 201.9 1921.32 196.2 1913.52 189C1905.72 181.6 1899.62 172.9 1895.22 162.9C1890.82 152.7 1888.62 141.5 1888.62 129.3C1888.62 117.3 1890.82 106.3 1895.22 96.3C1899.62 86.1 1905.72 77.4 1913.52 70.2C1921.32 62.8 1930.52 57.1 1941.12 53.1C1951.92 48.9 1963.62 46.8 1976.22 46.8C1989.02 46.8 2000.72 48.9 2011.32 53.1C2022.12 57.1 2031.42 62.8 2039.22 70.2C2047.02 77.4 2053.12 86.1 2057.52 96.3C2061.92 106.3 2064.12 117.3 2064.12 129.3C2064.12 141.5 2061.92 152.7 2057.52 162.9C2053.12 172.9 2047.02 181.6 2039.22 189C2031.42 196.2 2022.12 201.9 2011.32 206.1C2000.72 210.1 1989.02 212.1 1976.22 212.1ZM1976.22 175.5C1988.62 175.5 1998.82 171.4 2006.82 163.2C2015.02 155 2019.12 143.7 2019.12 129.3C2019.12 114.9 2015.02 103.7 2006.82 95.7C1998.82 87.5 1988.62 83.4 1976.22 83.4C1970.22 83.4 1964.62 84.5 1959.42 86.7C1954.22 88.7 1949.72 91.7 1945.92 95.7C1942.12 99.7 1939.12 104.5 1936.92 110.1C1934.72 115.7 1933.62 122.1 1933.62 129.3C1933.62 136.5 1934.72 143 1936.92 148.8C1939.12 154.4 1942.12 159.2 1945.92 163.2C1949.72 167.2 1954.22 170.3 1959.42 172.5C1964.62 174.5 1970.22 175.5 1976.22 175.5ZM2192.91 46.8C2202.51 46.8 2211.41 48.2 2219.61 51C2227.81 53.8 2234.91 58.1 2240.91 63.9C2246.91 69.7 2251.61 77.1 2255.01 86.1C2258.41 94.9 2260.11 105.5 2260.11 117.9V210H2215.41V124.2C2215.41 111 2212.41 101.2 2206.41 94.8C2200.61 88.4 2192.31 85.2 2181.51 85.2C2169.51 85.2 2159.81 88.9 2152.41 96.3C2145.01 103.5 2141.31 114.7 2141.31 129.9V210H2096.91V48.9H2139.21V68.4C2145.61 61.4 2153.41 56.1 2162.61 52.5C2171.81 48.7 2181.91 46.8 2192.91 46.8ZM2394.65 86.4H2353.85V154.5C2353.85 161.7 2355.65 167.2 2359.25 171C2362.85 174.8 2367.85 176.7 2374.25 176.7C2381.65 176.7 2388.15 174.7 2393.75 170.7L2405.75 202.2C2400.95 205.6 2395.25 208.1 2388.65 209.7C2382.05 211.3 2375.25 212.1 2368.25 212.1C2349.45 212.1 2334.85 207.4 2324.45 198C2314.25 188.6 2309.15 174.4 2309.15 155.4V86.4H2283.95V51.9H2309.15V13.2H2353.85V51.9H2394.65V86.4Z" fill="url(#paint0_linear_41_9)"/>
<defs>
<linearGradient id="paint0_linear_41_9" x1="2539" y1="-30" x2="655.517" y2="765.132" gradientUnits="userSpaceOnUse">
<stop stop-color="#F7A062"/>
<stop offset="1" stop-color="#FFE5D2"/>
</linearGradient>
</defs>
</svg>
