<svg width="1232" height="225" viewBox="0 0 1232 225" fill="none" xmlns="http://www.w3.org/2000/svg">
<path d="M0 0H84.3652C106.164 0 122.554 4.16204 133.537 12.4861C144.685 20.6437 150.26 31.6315 150.26 45.4495C150.26 54.273 148.18 61.9312 144.02 68.424C139.86 74.9167 134.285 80.0777 127.297 83.9068C136.948 87.0699 144.602 92.3141 150.26 99.6393C156.084 106.964 158.996 116.121 158.996 127.109C158.996 142.259 153.089 153.996 141.274 162.32C129.626 170.644 112.321 174.806 89.3572 174.806H0V145.588H86.8612C97.6773 145.588 105.914 143.84 111.572 140.344C117.229 136.681 120.058 130.938 120.058 123.113C120.058 115.289 117.229 109.628 111.572 106.132C105.914 102.469 97.6773 100.638 86.8612 100.638H0V72.1698H79.8724C90.0228 72.1698 97.7604 70.4217 103.085 66.9256C108.576 63.263 111.322 57.8523 111.322 50.6936C111.322 43.5349 108.576 38.2076 103.085 34.7114C97.7604 31.0489 90.0228 29.2175 79.8724 29.2175H0V0Z" fill="url(#paint0_linear_33_5)"/>
<path d="M244.278 176.554C235.791 176.554 228.054 175.388 221.065 173.058C214.076 170.56 208.002 166.898 202.844 162.07C197.852 157.075 193.941 150.832 191.113 143.341C188.284 135.849 186.869 126.942 186.869 116.62V40.7048H223.81V111.127C223.81 122.614 226.223 131.104 231.049 136.598C236.041 141.926 243.03 144.589 252.015 144.589C261.5 144.589 269.238 141.593 275.228 135.599C281.385 129.439 284.463 120.033 284.463 107.381V40.7048H321.654V174.806H286.211V158.824C281.052 164.65 274.812 169.062 267.491 172.059C260.335 175.055 252.598 176.554 244.278 176.554Z" fill="url(#paint1_linear_33_5)"/>
<path d="M402.667 176.554C391.352 176.554 380.453 175.222 369.969 172.558C359.486 169.895 351.166 166.398 345.009 162.07L357.739 135.35C363.729 139.179 370.884 142.259 379.205 144.589C387.691 146.92 396.094 148.085 404.414 148.085C413.733 148.085 420.306 147.003 424.133 144.839C427.96 142.508 429.874 139.345 429.874 135.35C429.874 131.521 427.877 128.857 423.883 127.358C419.89 125.694 414.814 124.362 408.658 123.363C402.667 122.364 396.177 121.282 389.189 120.117C382.2 118.951 375.627 117.037 369.47 114.373C363.48 111.709 358.488 107.88 354.494 102.886C350.5 97.7247 348.504 90.6493 348.504 81.6593C348.504 75.333 349.918 69.5894 352.747 64.4284C355.576 59.101 359.569 54.606 364.728 50.9434C370.053 47.1143 376.459 44.2009 383.947 42.2031C391.601 40.0388 400.171 38.9567 409.656 38.9567C414.315 38.9567 418.974 39.2065 423.634 39.7059C428.459 40.2053 433.118 40.9545 437.611 41.9534C442.104 42.9523 446.347 44.2009 450.341 45.6992C454.335 47.0311 457.912 48.6127 461.074 50.444L448.344 77.414C441.854 73.5849 435.365 71.0044 428.875 69.6726C422.386 68.1742 416.062 67.4251 409.906 67.4251C400.92 67.4251 394.347 68.6737 390.187 71.1709C386.027 73.5016 383.947 76.5815 383.947 80.4106C383.947 84.4062 385.944 87.3197 389.937 89.1509C393.931 90.8158 398.923 92.2308 404.913 93.3962C411.07 94.3951 417.643 95.4772 424.632 96.6426C431.621 97.6415 438.11 99.4728 444.101 102.137C450.258 104.8 455.333 108.629 459.327 113.624C463.32 118.618 465.317 125.527 465.317 134.351C465.317 140.511 463.903 146.254 461.074 151.582C458.245 156.743 454.168 161.154 448.843 164.817C443.518 168.479 436.946 171.393 429.125 173.557C421.47 175.555 412.651 176.554 402.667 176.554Z" fill="url(#paint2_linear_33_5)"/>
<path d="M553.013 146.088C558.005 146.088 562.664 145.255 566.99 143.59C571.483 141.759 575.31 139.179 578.472 135.849C581.634 132.519 584.13 128.524 585.96 123.862C587.79 119.201 588.706 113.873 588.706 107.88C588.706 101.887 587.79 96.5594 585.96 91.8979C584.13 87.0699 581.634 82.9911 578.472 79.6615C575.31 76.3318 571.483 73.8346 566.99 72.1698C562.664 70.3385 558.005 69.4228 553.013 69.4228C548.021 69.4228 543.361 70.3385 539.035 72.1698C534.709 73.8346 530.965 76.3318 527.803 79.6615C524.641 82.9911 522.145 87.0699 520.315 91.8979C518.485 96.5594 517.569 101.887 517.569 107.88C517.569 113.873 518.485 119.201 520.315 123.862C522.145 128.524 524.641 132.519 527.803 135.849C530.965 139.179 534.709 141.759 539.035 143.59C543.361 145.255 548.021 146.088 553.013 146.088ZM625.148 223.252H587.957V160.072C582.965 165.732 576.975 169.895 569.986 172.558C563.163 175.222 555.509 176.554 547.022 176.554C537.538 176.554 528.718 174.972 520.565 171.809C512.411 168.479 505.339 163.901 499.349 158.074C493.358 152.081 488.616 144.839 485.121 136.349C481.793 127.858 480.129 118.368 480.129 107.88C480.129 97.3918 481.793 87.9023 485.121 79.4118C488.616 70.9212 493.358 63.6792 499.349 57.6859C505.339 51.6926 512.411 47.1143 520.565 43.9512C528.718 40.6215 537.538 38.9567 547.022 38.9567C565.659 38.9567 579.886 44.8668 589.704 56.687V40.7048H625.148V223.252Z" fill="url(#paint3_linear_33_5)"/>
<path d="M718.861 176.554C710.375 176.554 702.637 175.388 695.648 173.058C688.659 170.56 682.586 166.898 677.427 162.07C672.435 157.075 668.525 150.832 665.696 143.341C662.867 135.849 661.453 126.942 661.453 116.62V40.7048H698.394V111.127C698.394 122.614 700.807 131.104 705.632 136.598C710.624 141.926 717.613 144.589 726.599 144.589C736.083 144.589 743.821 141.593 749.812 135.599C755.968 129.439 759.047 120.033 759.047 107.381V40.7048H796.237V174.806H760.794V158.824C755.636 164.65 749.396 169.062 742.074 172.059C734.919 175.055 727.181 176.554 718.861 176.554Z" fill="url(#paint4_linear_33_5)"/>
<path d="M928.169 96.1431C926.838 87.3196 923.094 80.3274 916.937 75.1665C910.947 69.8391 903.292 67.1754 893.974 67.1754C884.822 67.1754 877.167 69.8391 871.01 75.1665C865.02 80.3274 861.359 87.3196 860.028 96.1431H928.169ZM898.716 176.554C887.235 176.554 876.834 174.889 867.516 171.559C858.364 168.063 850.46 163.319 843.804 157.325C837.148 151.165 831.99 143.84 828.329 135.35C824.834 126.859 823.087 117.619 823.087 107.63C823.087 97.6415 824.834 88.485 828.329 80.1609C831.99 71.6704 836.982 64.4284 843.305 58.435C849.628 52.2752 857.116 47.5305 865.769 44.2009C874.422 40.7048 883.823 38.9567 893.974 38.9567C903.791 38.9567 912.943 40.5383 921.43 43.7014C929.916 46.8646 937.238 51.4428 943.395 57.4362C949.552 63.4295 954.377 70.7547 957.872 79.4118C961.366 87.9023 963.113 97.5583 963.113 108.38C963.113 109.711 963.03 111.376 962.864 113.374C962.864 115.205 962.781 116.87 962.614 118.368H860.278C862.108 127.192 866.518 134.184 873.506 139.345C880.495 144.34 889.315 146.837 899.964 146.837C907.119 146.837 913.443 145.755 918.934 143.59C924.425 141.26 929.5 137.847 934.16 133.352L953.878 155.078C941.398 169.395 923.011 176.554 898.716 176.554Z" fill="url(#paint5_linear_33_5)"/>
<path d="M1027.24 174.806H990.296V40.7048H1025.49V58.9345C1034.98 45.616 1050.53 38.9567 1072.17 38.9567V73.4184C1069 72.919 1066.18 72.6692 1063.68 72.6692C1052.7 72.6692 1043.88 75.8324 1037.22 82.1587C1030.57 88.485 1027.24 98.141 1027.24 111.127V174.806Z" fill="url(#paint6_linear_33_5)"/>
<path d="M1157.62 133.851L1196.56 40.7048H1232L1171.1 183.796C1167.94 191.787 1164.36 198.446 1160.36 203.774C1156.54 209.101 1152.29 213.263 1147.63 216.26C1143.14 219.423 1138.32 221.67 1133.16 223.002C1128 224.334 1122.43 225 1116.43 225C1109.45 225 1102.54 223.918 1095.72 221.754C1089.06 219.756 1083.57 216.759 1079.24 212.764L1093.22 186.293C1096.22 189.123 1099.63 191.287 1103.46 192.786C1107.45 194.284 1111.44 195.033 1115.44 195.033C1120.76 195.033 1125.09 193.701 1128.42 191.038C1131.91 188.374 1134.99 183.962 1137.65 177.802L1138.65 175.555L1080.49 40.7048H1118.68L1157.62 133.851Z" fill="url(#paint7_linear_33_5)"/>
<defs>
<linearGradient id="paint0_linear_33_5" x1="1232" y1="-182" x2="241" y2="245" gradientUnits="userSpaceOnUse">
<stop stop-color="#F7A062"/>
<stop offset="1" stop-color="#FFE5D2"/>
</linearGradient>
<linearGradient id="paint1_linear_33_5" x1="1232" y1="-182" x2="241" y2="245" gradientUnits="userSpaceOnUse">
<stop stop-color="#F7A062"/>
<stop offset="1" stop-color="#FFE5D2"/>
</linearGradient>
<linearGradient id="paint2_linear_33_5" x1="1232" y1="-182" x2="241" y2="245" gradientUnits="userSpaceOnUse">
<stop stop-color="#F7A062"/>
<stop offset="1" stop-color="#FFE5D2"/>
</linearGradient>
<linearGradient id="paint3_linear_33_5" x1="1232" y1="-182" x2="241" y2="245" gradientUnits="userSpaceOnUse">
<stop stop-color="#F7A062"/>
<stop offset="1" stop-color="#FFE5D2"/>
</linearGradient>
<linearGradient id="paint4_linear_33_5" x1="1232" y1="-182" x2="241" y2="245" gradientUnits="userSpaceOnUse">
<stop stop-color="#F7A062"/>
<stop offset="1" stop-color="#FFE5D2"/>
</linearGradient>
<linearGradient id="paint5_linear_33_5" x1="1232" y1="-182" x2="241" y2="245" gradientUnits="userSpaceOnUse">
<stop stop-color="#F7A062"/>
<stop offset="1" stop-color="#FFE5D2"/>
</linearGradient>
<linearGradient id="paint6_linear_33_5" x1="1232" y1="-182" x2="241" y2="245" gradientUnits="userSpaceOnUse">
<stop stop-color="#F7A062"/>
<stop offset="1" stop-color="#FFE5D2"/>
</linearGradient>
<linearGradient id="paint7_linear_33_5" x1="1232" y1="-182" x2="241" y2="245" gradientUnits="userSpaceOnUse">
<stop stop-color="#F7A062"/>
<stop offset="1" stop-color="#FFE5D2"/>
</linearGradient>
</defs>
</svg>
